G04 Layer_Color=16711935*
%FSLAX44Y44*%
%MOMM*%
G71*
G01*
G75*
%ADD32R,1.0900X0.6400*%
%ADD34R,2.0828X2.0828*%
%ADD35C,2.0828*%
%ADD36C,1.8032*%
%ADD37C,1.0032*%
D32*
X322800Y315300D02*
D03*
Y307300D02*
D03*
Y323300D02*
D03*
Y331300D02*
D03*
X339800Y307300D02*
D03*
Y315300D02*
D03*
Y331300D02*
D03*
Y323300D02*
D03*
X322800Y269300D02*
D03*
Y261300D02*
D03*
Y277300D02*
D03*
Y285300D02*
D03*
X339800Y261300D02*
D03*
Y269300D02*
D03*
Y285300D02*
D03*
Y277300D02*
D03*
X682500Y323000D02*
D03*
Y331000D02*
D03*
Y315000D02*
D03*
Y307000D02*
D03*
X665500Y331000D02*
D03*
Y323000D02*
D03*
Y307000D02*
D03*
Y315000D02*
D03*
X682500Y277000D02*
D03*
Y285000D02*
D03*
Y269000D02*
D03*
Y261000D02*
D03*
X665500Y285000D02*
D03*
Y277000D02*
D03*
Y261000D02*
D03*
Y269000D02*
D03*
D34*
X703200Y88900D02*
D03*
Y495300D02*
D03*
Y63500D02*
D03*
Y520700D02*
D03*
X68200Y88900D02*
D03*
Y495300D02*
D03*
Y63500D02*
D03*
Y520700D02*
D03*
D35*
X728600Y88900D02*
D03*
X754000D02*
D03*
X779400D02*
D03*
X804800D02*
D03*
X830200D02*
D03*
X855600D02*
D03*
X881000D02*
D03*
X906400D02*
D03*
X931800D02*
D03*
X728600Y495300D02*
D03*
X754000D02*
D03*
X779400D02*
D03*
X804800D02*
D03*
X830200D02*
D03*
X855600D02*
D03*
X881000D02*
D03*
X906400D02*
D03*
X931800D02*
D03*
X728600Y63500D02*
D03*
X754000D02*
D03*
X779400D02*
D03*
X804800D02*
D03*
X830200D02*
D03*
X855600D02*
D03*
X881000D02*
D03*
X906400D02*
D03*
X931800D02*
D03*
X728600Y520700D02*
D03*
X754000D02*
D03*
X779400D02*
D03*
X804800D02*
D03*
X830200D02*
D03*
X855600D02*
D03*
X881000D02*
D03*
X906400D02*
D03*
X931800D02*
D03*
X93600Y88900D02*
D03*
X119000D02*
D03*
X144400D02*
D03*
X169800D02*
D03*
X195200D02*
D03*
X220600D02*
D03*
X246000D02*
D03*
X271400D02*
D03*
X296800D02*
D03*
X93600Y495300D02*
D03*
X119000D02*
D03*
X144400D02*
D03*
X169800D02*
D03*
X195200D02*
D03*
X220600D02*
D03*
X246000D02*
D03*
X271400D02*
D03*
X296800D02*
D03*
X93600Y63500D02*
D03*
X119000D02*
D03*
X144400D02*
D03*
X169800D02*
D03*
X195200D02*
D03*
X220600D02*
D03*
X246000D02*
D03*
X271400D02*
D03*
X296800D02*
D03*
X93600Y520700D02*
D03*
X119000D02*
D03*
X144400D02*
D03*
X169800D02*
D03*
X195200D02*
D03*
X220600D02*
D03*
X246000D02*
D03*
X271400D02*
D03*
X296800D02*
D03*
D36*
X413800Y87000D02*
D03*
X439200D02*
D03*
X464600D02*
D03*
X515400D02*
D03*
X490000D02*
D03*
X540800D02*
D03*
X591600D02*
D03*
X566200D02*
D03*
Y61600D02*
D03*
X591600D02*
D03*
X540800D02*
D03*
X490000D02*
D03*
X515400D02*
D03*
X464600D02*
D03*
X413800D02*
D03*
X439200D02*
D03*
X54700Y235100D02*
D03*
Y209700D02*
D03*
Y260500D02*
D03*
Y311300D02*
D03*
Y285900D02*
D03*
Y336700D02*
D03*
Y387500D02*
D03*
Y362100D02*
D03*
X29300D02*
D03*
Y387500D02*
D03*
Y336700D02*
D03*
Y285900D02*
D03*
Y311300D02*
D03*
Y260500D02*
D03*
Y235100D02*
D03*
Y209700D02*
D03*
X965700Y228100D02*
D03*
Y202700D02*
D03*
Y253500D02*
D03*
Y304300D02*
D03*
Y278900D02*
D03*
Y329700D02*
D03*
Y380500D02*
D03*
Y355100D02*
D03*
X940300D02*
D03*
Y380500D02*
D03*
Y329700D02*
D03*
Y278900D02*
D03*
Y304300D02*
D03*
Y253500D02*
D03*
Y228100D02*
D03*
Y202700D02*
D03*
X592300Y494300D02*
D03*
X566900D02*
D03*
X541500D02*
D03*
X490700D02*
D03*
X516100D02*
D03*
X465300D02*
D03*
X414500D02*
D03*
X439900D02*
D03*
Y519700D02*
D03*
X414500D02*
D03*
X465300D02*
D03*
X516100D02*
D03*
X490700D02*
D03*
X541500D02*
D03*
X592300D02*
D03*
X566900D02*
D03*
D37*
X859000Y464000D02*
D03*
X100000Y212000D02*
D03*
X116000Y208000D02*
D03*
X336000Y450000D02*
D03*
X273000D02*
D03*
X315000Y426000D02*
D03*
X302000Y416000D02*
D03*
X326000Y437000D02*
D03*
X189000Y409000D02*
D03*
X160000Y411000D02*
D03*
X976000Y133000D02*
D03*
X948000D02*
D03*
X916000D02*
D03*
X828000Y157000D02*
D03*
X793000Y120000D02*
D03*
X899000Y150000D02*
D03*
X263000Y437000D02*
D03*
X175300Y410000D02*
D03*
X675000Y203000D02*
D03*
X252000Y426000D02*
D03*
X186000Y392000D02*
D03*
X202000Y411000D02*
D03*
X222000Y404000D02*
D03*
X314000Y408000D02*
D03*
X326000Y400000D02*
D03*
X620000Y165000D02*
D03*
X638000Y179000D02*
D03*
X656000Y189000D02*
D03*
X779000Y204000D02*
D03*
X787000Y192000D02*
D03*
X795500Y179500D02*
D03*
X849000Y286000D02*
D03*
X376000Y558000D02*
D03*
X360000Y542000D02*
D03*
Y520000D02*
D03*
X376000Y520000D02*
D03*
X166800Y305800D02*
D03*
X166800Y289800D02*
D03*
X174300Y334300D02*
D03*
X190300Y334300D02*
D03*
X238800Y305800D02*
D03*
X229800Y315800D02*
D03*
X238800Y285800D02*
D03*
X229800Y295800D02*
D03*
Y275800D02*
D03*
X238800Y265800D02*
D03*
X777000Y266000D02*
D03*
X786000Y256000D02*
D03*
X777000Y286000D02*
D03*
X786000Y276000D02*
D03*
X777000Y306000D02*
D03*
X786000Y296000D02*
D03*
Y316000D02*
D03*
X849000Y302000D02*
D03*
X841500Y257500D02*
D03*
X825500Y257500D02*
D03*
X863000Y133000D02*
D03*
X852000Y149000D02*
D03*
X933000Y117000D02*
D03*
X917000Y281000D02*
D03*
X657000Y215000D02*
D03*
X691000Y199000D02*
D03*
X695000Y219000D02*
D03*
X745500Y224500D02*
D03*
X703000Y451000D02*
D03*
X871000Y362000D02*
D03*
X915000Y369000D02*
D03*
X825500Y391500D02*
D03*
X774000Y325000D02*
D03*
X809500Y257500D02*
D03*
X959000Y547000D02*
D03*
X972000Y520700D02*
D03*
X86000Y308000D02*
D03*
X310000Y162000D02*
D03*
X294000D02*
D03*
X283000Y149000D02*
D03*
X186000Y206000D02*
D03*
X339800Y358800D02*
D03*
X266000Y369000D02*
D03*
X257000Y205000D02*
D03*
X338000Y467000D02*
D03*
X290000D02*
D03*
X160000Y434000D02*
D03*
X86000Y412000D02*
D03*
X238800Y325800D02*
D03*
X226800Y332800D02*
D03*
X656000Y28000D02*
D03*
X638000Y38000D02*
D03*
X620000Y47000D02*
D03*
X132000Y346000D02*
D03*
Y369000D02*
D03*
X933000Y470000D02*
D03*
X663000Y353000D02*
D03*
X106000Y127000D02*
D03*
X784700Y109000D02*
D03*
X809000Y138000D02*
D03*
X741000Y138000D02*
D03*
M02*
