G04 Layer_Color=8421504*
%FSLAX44Y44*%
%MOMM*%
G71*
G01*
G75*
%ADD10R,1.4000X1.6000*%
%ADD11R,1.6000X1.4000*%
%ADD12R,1.4000X0.2500*%
%ADD13R,0.2500X1.4000*%
%ADD14R,0.9000X0.4500*%
%ADD15R,1.2192X1.2192*%
D10*
X262000Y178500D02*
D03*
Y153500D02*
D03*
X241385Y178800D02*
D03*
Y153800D02*
D03*
X219342Y178800D02*
D03*
Y153800D02*
D03*
X197300Y178800D02*
D03*
Y153800D02*
D03*
X175257Y178800D02*
D03*
Y153800D02*
D03*
X153215Y178800D02*
D03*
Y153800D02*
D03*
X795000Y412500D02*
D03*
Y437500D02*
D03*
X816000Y412500D02*
D03*
Y437500D02*
D03*
X837000Y412500D02*
D03*
Y437500D02*
D03*
X859000Y412500D02*
D03*
Y437500D02*
D03*
X774000Y412500D02*
D03*
Y437500D02*
D03*
X753000Y412500D02*
D03*
Y437500D02*
D03*
X645000Y444500D02*
D03*
Y469500D02*
D03*
X354000Y444500D02*
D03*
Y469500D02*
D03*
D11*
X284500Y369000D02*
D03*
X309500D02*
D03*
X914500Y442000D02*
D03*
X889500D02*
D03*
X105500Y402000D02*
D03*
X130500D02*
D03*
X185500Y443000D02*
D03*
X210500D02*
D03*
X914500Y462000D02*
D03*
X889500D02*
D03*
X745500Y207000D02*
D03*
X720500D02*
D03*
Y186000D02*
D03*
X745500D02*
D03*
X105500Y422000D02*
D03*
X130500D02*
D03*
D12*
X260800Y335800D02*
D03*
Y330800D02*
D03*
Y325800D02*
D03*
Y320800D02*
D03*
Y315800D02*
D03*
Y310800D02*
D03*
Y305800D02*
D03*
Y300800D02*
D03*
Y295800D02*
D03*
Y290800D02*
D03*
Y285800D02*
D03*
Y280800D02*
D03*
Y275800D02*
D03*
Y270800D02*
D03*
Y265800D02*
D03*
Y260800D02*
D03*
X144800D02*
D03*
Y265800D02*
D03*
Y270800D02*
D03*
Y275800D02*
D03*
Y280800D02*
D03*
Y285800D02*
D03*
Y290800D02*
D03*
Y295800D02*
D03*
Y300800D02*
D03*
Y305800D02*
D03*
Y310800D02*
D03*
Y315800D02*
D03*
Y320800D02*
D03*
Y325800D02*
D03*
Y330800D02*
D03*
Y335800D02*
D03*
X755000Y256000D02*
D03*
Y261000D02*
D03*
Y266000D02*
D03*
Y271000D02*
D03*
Y276000D02*
D03*
Y281000D02*
D03*
Y286000D02*
D03*
Y291000D02*
D03*
Y296000D02*
D03*
Y301000D02*
D03*
Y306000D02*
D03*
Y311000D02*
D03*
Y316000D02*
D03*
Y321000D02*
D03*
Y326000D02*
D03*
Y331000D02*
D03*
X871000D02*
D03*
Y326000D02*
D03*
Y321000D02*
D03*
Y316000D02*
D03*
Y311000D02*
D03*
Y306000D02*
D03*
Y301000D02*
D03*
Y296000D02*
D03*
Y291000D02*
D03*
Y286000D02*
D03*
Y281000D02*
D03*
Y276000D02*
D03*
Y271000D02*
D03*
Y266000D02*
D03*
Y261000D02*
D03*
Y256000D02*
D03*
D13*
X240300Y240300D02*
D03*
X235300D02*
D03*
X230300D02*
D03*
X225300D02*
D03*
X220300D02*
D03*
X215300D02*
D03*
X210300D02*
D03*
X205300D02*
D03*
X200300D02*
D03*
X195300D02*
D03*
X190300D02*
D03*
X185300D02*
D03*
X180300D02*
D03*
X175300D02*
D03*
X170300D02*
D03*
X165300D02*
D03*
Y356300D02*
D03*
X170300D02*
D03*
X175300D02*
D03*
X180300D02*
D03*
X185300D02*
D03*
X190300D02*
D03*
X195300D02*
D03*
X200300D02*
D03*
X205300D02*
D03*
X210300D02*
D03*
X215300D02*
D03*
X220300D02*
D03*
X225300D02*
D03*
X230300D02*
D03*
X235300D02*
D03*
X240300D02*
D03*
X775500Y351500D02*
D03*
X780500D02*
D03*
X785500D02*
D03*
X790500D02*
D03*
X795500D02*
D03*
X800500D02*
D03*
X805500D02*
D03*
X810500D02*
D03*
X815500D02*
D03*
X820500D02*
D03*
X825500D02*
D03*
X830500D02*
D03*
X835500D02*
D03*
X840500D02*
D03*
X845500D02*
D03*
X850500D02*
D03*
Y235500D02*
D03*
X845500D02*
D03*
X840500D02*
D03*
X835500D02*
D03*
X830500D02*
D03*
X825500D02*
D03*
X820500D02*
D03*
X815500D02*
D03*
X810500D02*
D03*
X805500D02*
D03*
X800500D02*
D03*
X795500D02*
D03*
X790500D02*
D03*
X785500D02*
D03*
X780500D02*
D03*
X775500D02*
D03*
D14*
X322300Y315300D02*
D03*
Y307300D02*
D03*
Y323300D02*
D03*
Y331300D02*
D03*
X339300Y307300D02*
D03*
Y315300D02*
D03*
Y331300D02*
D03*
Y323300D02*
D03*
X322300Y269300D02*
D03*
Y261300D02*
D03*
Y277300D02*
D03*
Y285300D02*
D03*
X339300Y261300D02*
D03*
Y269300D02*
D03*
Y285300D02*
D03*
Y277300D02*
D03*
X683000Y277000D02*
D03*
Y285000D02*
D03*
Y269000D02*
D03*
Y261000D02*
D03*
X666000Y285000D02*
D03*
Y277000D02*
D03*
Y261000D02*
D03*
Y269000D02*
D03*
X683000Y323000D02*
D03*
Y331000D02*
D03*
Y315000D02*
D03*
Y307000D02*
D03*
X666000Y331000D02*
D03*
Y323000D02*
D03*
Y307000D02*
D03*
Y315000D02*
D03*
D15*
X645000Y382332D02*
D03*
Y403500D02*
D03*
X354000Y382332D02*
D03*
Y403500D02*
D03*
M02*
