G04 Layer_Physical_Order=2*
G04 Layer_Color=16711680*
%FSLAX44Y44*%
%MOMM*%
G71*
G01*
G75*
%ADD14R,0.9000X0.4500*%
%ADD16C,0.4000*%
%ADD17C,0.2500*%
%ADD18C,0.2540*%
%ADD19R,1.8796X1.8796*%
%ADD20C,1.8796*%
%ADD21C,1.6000*%
%ADD22C,0.8000*%
%ADD23C,1.0000*%
D14*
X322800Y315300D02*
D03*
Y307300D02*
D03*
Y323300D02*
D03*
Y331300D02*
D03*
X339800Y307300D02*
D03*
Y315300D02*
D03*
Y331300D02*
D03*
Y323300D02*
D03*
X322800Y269300D02*
D03*
Y261300D02*
D03*
Y277300D02*
D03*
Y285300D02*
D03*
X339800Y261300D02*
D03*
Y269300D02*
D03*
Y285300D02*
D03*
Y277300D02*
D03*
X682500Y323000D02*
D03*
Y331000D02*
D03*
Y315000D02*
D03*
Y307000D02*
D03*
X665500Y331000D02*
D03*
Y323000D02*
D03*
Y307000D02*
D03*
Y315000D02*
D03*
X682500Y277000D02*
D03*
Y285000D02*
D03*
Y269000D02*
D03*
Y261000D02*
D03*
X665500Y285000D02*
D03*
Y277000D02*
D03*
Y261000D02*
D03*
Y269000D02*
D03*
D16*
X695000Y464000D02*
X859000D01*
X675000Y484000D02*
X695000Y464000D01*
X859000D02*
X927000D01*
X933000Y470000D01*
X86000Y308000D02*
X100000Y294000D01*
Y212000D02*
Y294000D01*
X116000Y208000D02*
Y328000D01*
X115000Y329000D02*
X116000Y328000D01*
X683700Y520700D02*
X703200D01*
X673000Y510000D02*
X683700Y520700D01*
X915000Y283000D02*
X917000Y281000D01*
X915000Y283000D02*
Y369000D01*
X68200Y482800D02*
Y495300D01*
Y482800D02*
X84000Y467000D01*
X290000D01*
X266000Y395000D02*
X338000Y467000D01*
X266000Y369000D02*
Y395000D01*
X55700Y520700D02*
X68200D01*
X45000Y510000D02*
X55700Y520700D01*
X45000Y475000D02*
Y510000D01*
Y475000D02*
X86000Y434000D01*
X160000D01*
X86000Y308000D02*
Y412000D01*
Y434000D01*
X115000Y329000D02*
X132000Y346000D01*
Y369000D01*
X673000Y486000D02*
Y510000D01*
Y486000D02*
X675000Y484000D01*
D17*
X138000Y199000D02*
Y322000D01*
X106000Y167000D02*
X138000Y199000D01*
X106000Y127000D02*
Y167000D01*
X784700Y109000D02*
X804800Y88900D01*
X396000Y450000D02*
X616000Y230000D01*
X336000Y450000D02*
X396000D01*
X391000Y437000D02*
X614000Y214000D01*
X326000Y437000D02*
X391000D01*
X608000Y203000D02*
X675000D01*
X385000Y426000D02*
X608000Y203000D01*
X315000Y426000D02*
X385000D01*
X597000Y189000D02*
X656000D01*
X386000Y400000D02*
X597000Y189000D01*
X326000Y400000D02*
X386000D01*
X598000Y179000D02*
X638000D01*
X386000Y391000D02*
X598000Y179000D01*
X321000Y391000D02*
X386000D01*
X603000Y165000D02*
X620000D01*
X385000Y383000D02*
X603000Y165000D01*
X318000Y383000D02*
X385000D01*
X199000Y450000D02*
X273000D01*
X302000Y399000D02*
Y416000D01*
Y399000D02*
X318000Y383000D01*
X160000Y411000D02*
X199000Y450000D01*
X189000Y409000D02*
X206000Y426000D01*
X948000Y133000D02*
X976000D01*
X804000Y120000D02*
X858000Y174000D01*
X793000Y120000D02*
X804000D01*
X841500Y183500D02*
Y257500D01*
X768000Y110000D02*
X841500Y183500D01*
X165500Y110000D02*
X768000D01*
X202300Y437000D02*
X263000D01*
X175300Y410000D02*
X202300Y437000D01*
X206000Y426000D02*
X252000D01*
X91500Y36000D02*
X119000Y63500D01*
X50929Y36000D02*
X91500D01*
X39000Y47929D02*
X50929Y36000D01*
X128000Y326142D02*
X186000Y384142D01*
Y392000D01*
X93600Y49600D02*
Y63500D01*
X85000Y41000D02*
X93600Y49600D01*
X53000Y41000D02*
X85000D01*
X44000Y50000D02*
X53000Y41000D01*
X133000Y324071D02*
X202000Y393071D01*
Y411000D01*
X220000Y404000D02*
X222000D01*
X138000Y322000D02*
X220000Y404000D01*
X800500Y190500D02*
X806000Y185000D01*
Y177000D02*
Y185000D01*
X314000Y398000D02*
Y408000D01*
Y398000D02*
X321000Y391000D01*
X825500Y183500D02*
Y257500D01*
X766000Y124000D02*
X825500Y183500D01*
X154100Y124000D02*
X766000D01*
X781000Y165000D02*
X795500Y179500D01*
X620000Y165000D02*
X781000D01*
X774000Y179000D02*
X787000Y192000D01*
X638000Y179000D02*
X774000D01*
X764000Y189000D02*
X779000Y204000D01*
X656000Y189000D02*
X764000D01*
X246000Y63500D02*
X281500Y28000D01*
X296800Y63500D02*
X313300Y47000D01*
X271400Y63500D02*
X296900Y38000D01*
X155000Y285000D02*
Y294000D01*
X166800Y305800D01*
X849000Y286000D02*
X858000Y277000D01*
Y174000D02*
Y277000D01*
X849000Y302000D02*
X875000Y276000D01*
Y190000D02*
Y276000D01*
X837000Y262000D02*
X841500Y257500D01*
X875000Y190000D02*
X958000Y107000D01*
Y53000D02*
Y107000D01*
X946000Y41000D02*
X958000Y53000D01*
X852700Y41000D02*
X946000D01*
X830200Y63500D02*
X852700Y41000D01*
X119000Y88900D02*
X154100Y124000D01*
X821000Y262000D02*
X825500Y257500D01*
X144400Y88900D02*
X165500Y110000D01*
X376000Y558000D02*
X742100D01*
X257900D02*
X376000D01*
X360000Y542000D02*
X732700D01*
X267300D02*
X360000D01*
X174300Y334300D02*
X360000Y520000D01*
X190300Y334300D02*
X376000Y520000D01*
X742100Y558000D02*
X779400Y520700D01*
X220600D02*
X257900Y558000D01*
X246000Y520700D02*
X267300Y542000D01*
X732700D02*
X754000Y520700D01*
X306300Y331300D02*
X322800D01*
X301800Y335800D02*
X306300Y331300D01*
X304300Y323300D02*
X322800D01*
X301800Y325800D02*
X304300Y323300D01*
X322300Y315800D02*
X322800Y315300D01*
X229800Y315800D02*
X322300D01*
X321300Y305800D02*
X322800Y307300D01*
X238800Y305800D02*
X321300D01*
X303300Y285300D02*
X322800D01*
X292800Y295800D02*
X303300Y285300D01*
X229800Y295800D02*
X292800D01*
X299300Y277300D02*
X322800D01*
X290800Y285800D02*
X299300Y277300D01*
X238800Y285800D02*
X290800D01*
X296300Y269300D02*
X322800D01*
X295300Y261300D02*
X322800D01*
X290800Y265800D02*
X295300Y261300D01*
X238800Y265800D02*
X290800D01*
X709000Y256000D02*
X786000D01*
X704000Y261000D02*
X709000Y256000D01*
X682500Y261000D02*
X704000D01*
X709000Y266000D02*
X777000D01*
X706000Y269000D02*
X709000Y266000D01*
X682500Y269000D02*
X706000D01*
X683500Y276000D02*
X786000D01*
X682500Y277000D02*
X683500Y276000D01*
X683500Y286000D02*
X777000D01*
X682500Y285000D02*
X683500Y286000D01*
X710000Y296000D02*
X786000D01*
X699000Y307000D02*
X710000Y296000D01*
X682500Y307000D02*
X699000D01*
X710000Y306000D02*
X777000D01*
X701000Y315000D02*
X710000Y306000D01*
X682500Y315000D02*
X701000D01*
X703000Y323000D02*
X710000Y316000D01*
X682500Y323000D02*
X703000D01*
X704000Y331000D02*
X709000Y326000D01*
X682500Y331000D02*
X704000D01*
X863000Y133000D02*
X916000D01*
X898000Y149000D02*
X899000Y150000D01*
X852000Y149000D02*
X898000D01*
X858300Y117000D02*
X933000D01*
X830200Y88900D02*
X858300Y117000D01*
X821000Y262000D02*
Y345000D01*
X837000Y262000D02*
Y343000D01*
X614000Y214000D02*
X615000Y215000D01*
X657000D01*
X673000Y241000D02*
X695000Y219000D01*
X652000Y241000D02*
X673000D01*
X642000Y251000D02*
X652000Y241000D01*
X642000Y251000D02*
Y451000D01*
X675000Y484000D01*
X722000Y248000D02*
X745500Y224500D01*
X654000Y248000D02*
X722000D01*
X648000Y254000D02*
X654000Y248000D01*
X648000Y254000D02*
Y396000D01*
X703000Y451000D01*
X616000Y230000D02*
X660000D01*
X691000Y199000D01*
X871000Y362000D02*
X890750Y381750D01*
X939050D01*
X940300Y380500D01*
X762500Y391500D02*
X825500D01*
X703000Y451000D02*
X762500Y391500D01*
X709000Y326000D02*
X709000Y326000D01*
X710000Y316000D02*
X786000D01*
X709000Y326000D02*
X774000D01*
X800500Y190500D02*
Y248500D01*
X809500Y257500D01*
X665500Y261000D02*
Y269000D01*
Y277000D01*
Y285000D01*
Y307000D01*
Y315000D01*
Y323000D01*
Y331000D01*
X821000Y345000D02*
X959000Y483000D01*
Y547000D01*
X972000Y478000D02*
Y520700D01*
X837000Y343000D02*
X972000Y478000D01*
X39000Y47929D02*
Y118000D01*
X128000Y207000D01*
Y326142D01*
X44000Y50000D02*
Y114000D01*
X133000Y203000D01*
Y324071D01*
X778000Y149000D02*
X806000Y177000D01*
X283000Y149000D02*
X778000D01*
X339800Y358800D02*
X340000Y359000D01*
X339800Y261300D02*
Y269300D01*
Y277300D01*
Y285300D01*
Y307300D01*
Y315300D01*
Y323300D01*
Y331300D01*
Y358800D01*
X185400Y206000D02*
X186000D01*
X144000Y248000D02*
X186000Y206000D01*
X144000Y248000D02*
Y307000D01*
X158000Y321000D01*
X197000D01*
X245000Y369000D01*
X266000D01*
X166800Y289800D02*
X212600Y244000D01*
X257000D01*
X310000Y191000D01*
Y162000D02*
Y191000D01*
X294000Y162000D02*
Y187000D01*
X155000Y285000D02*
X205000Y235000D01*
X246000D01*
X294000Y187000D01*
X186000Y206000D02*
X256000D01*
X257000Y205000D01*
X238800Y325800D02*
X301800D01*
X229800Y335800D02*
X301800D01*
X281500Y28000D02*
X656000D01*
X296900Y38000D02*
X638000D01*
X313300Y47000D02*
X620000D01*
X663000Y333500D02*
X665500Y331000D01*
X663000Y333500D02*
Y353000D01*
X809000Y138000D02*
X828000Y157000D01*
X93600Y88900D02*
X142700Y138000D01*
X741000D01*
X229800Y275800D02*
X289800D01*
X296300Y269300D01*
D18*
X296800Y520700D02*
X301880Y525780D01*
D19*
X703200Y88900D02*
D03*
Y495300D02*
D03*
Y63500D02*
D03*
Y520700D02*
D03*
X68200Y88900D02*
D03*
Y495300D02*
D03*
Y63500D02*
D03*
Y520700D02*
D03*
D20*
X728600Y88900D02*
D03*
X754000D02*
D03*
X779400D02*
D03*
X804800D02*
D03*
X830200D02*
D03*
X855600D02*
D03*
X881000D02*
D03*
X906400D02*
D03*
X931800D02*
D03*
X728600Y495300D02*
D03*
X754000D02*
D03*
X779400D02*
D03*
X804800D02*
D03*
X830200D02*
D03*
X855600D02*
D03*
X881000D02*
D03*
X906400D02*
D03*
X931800D02*
D03*
X728600Y63500D02*
D03*
X754000D02*
D03*
X779400D02*
D03*
X804800D02*
D03*
X830200D02*
D03*
X855600D02*
D03*
X881000D02*
D03*
X906400D02*
D03*
X931800D02*
D03*
X728600Y520700D02*
D03*
X754000D02*
D03*
X779400D02*
D03*
X804800D02*
D03*
X830200D02*
D03*
X855600D02*
D03*
X881000D02*
D03*
X906400D02*
D03*
X931800D02*
D03*
X93600Y88900D02*
D03*
X119000D02*
D03*
X144400D02*
D03*
X169800D02*
D03*
X195200D02*
D03*
X220600D02*
D03*
X246000D02*
D03*
X271400D02*
D03*
X296800D02*
D03*
X93600Y495300D02*
D03*
X119000D02*
D03*
X144400D02*
D03*
X169800D02*
D03*
X195200D02*
D03*
X220600D02*
D03*
X246000D02*
D03*
X271400D02*
D03*
X296800D02*
D03*
X93600Y63500D02*
D03*
X119000D02*
D03*
X144400D02*
D03*
X169800D02*
D03*
X195200D02*
D03*
X220600D02*
D03*
X246000D02*
D03*
X271400D02*
D03*
X296800D02*
D03*
X93600Y520700D02*
D03*
X119000D02*
D03*
X144400D02*
D03*
X169800D02*
D03*
X195200D02*
D03*
X220600D02*
D03*
X246000D02*
D03*
X271400D02*
D03*
X296800D02*
D03*
D21*
X413800Y87000D02*
D03*
X439200D02*
D03*
X464600D02*
D03*
X515400D02*
D03*
X490000D02*
D03*
X540800D02*
D03*
X591600D02*
D03*
X566200D02*
D03*
Y61600D02*
D03*
X591600D02*
D03*
X540800D02*
D03*
X490000D02*
D03*
X515400D02*
D03*
X464600D02*
D03*
X413800D02*
D03*
X439200D02*
D03*
X54700Y235100D02*
D03*
Y209700D02*
D03*
Y260500D02*
D03*
Y311300D02*
D03*
Y285900D02*
D03*
Y336700D02*
D03*
Y387500D02*
D03*
Y362100D02*
D03*
X29300D02*
D03*
Y387500D02*
D03*
Y336700D02*
D03*
Y285900D02*
D03*
Y311300D02*
D03*
Y260500D02*
D03*
Y235100D02*
D03*
Y209700D02*
D03*
X965700Y228100D02*
D03*
Y202700D02*
D03*
Y253500D02*
D03*
Y304300D02*
D03*
Y278900D02*
D03*
Y329700D02*
D03*
Y380500D02*
D03*
Y355100D02*
D03*
X940300D02*
D03*
Y380500D02*
D03*
Y329700D02*
D03*
Y278900D02*
D03*
Y304300D02*
D03*
Y253500D02*
D03*
Y228100D02*
D03*
Y202700D02*
D03*
X592300Y494300D02*
D03*
X566900D02*
D03*
X541500D02*
D03*
X490700D02*
D03*
X516100D02*
D03*
X465300D02*
D03*
X414500D02*
D03*
X439900D02*
D03*
Y519700D02*
D03*
X414500D02*
D03*
X465300D02*
D03*
X516100D02*
D03*
X490700D02*
D03*
X541500D02*
D03*
X592300D02*
D03*
X566900D02*
D03*
D22*
X859000Y464000D02*
D03*
X100000Y212000D02*
D03*
X116000Y208000D02*
D03*
X336000Y450000D02*
D03*
X273000D02*
D03*
X315000Y426000D02*
D03*
X302000Y416000D02*
D03*
X326000Y437000D02*
D03*
X189000Y409000D02*
D03*
X160000Y411000D02*
D03*
X976000Y133000D02*
D03*
X948000D02*
D03*
X916000D02*
D03*
X828000Y157000D02*
D03*
X793000Y120000D02*
D03*
X899000Y150000D02*
D03*
X263000Y437000D02*
D03*
X175300Y410000D02*
D03*
X675000Y203000D02*
D03*
X252000Y426000D02*
D03*
X186000Y392000D02*
D03*
X202000Y411000D02*
D03*
X222000Y404000D02*
D03*
X314000Y408000D02*
D03*
X326000Y400000D02*
D03*
X620000Y165000D02*
D03*
X638000Y179000D02*
D03*
X656000Y189000D02*
D03*
X779000Y204000D02*
D03*
X787000Y192000D02*
D03*
X795500Y179500D02*
D03*
X849000Y286000D02*
D03*
X376000Y558000D02*
D03*
X360000Y542000D02*
D03*
Y520000D02*
D03*
X376000Y520000D02*
D03*
X166800Y305800D02*
D03*
X166800Y289800D02*
D03*
X174300Y334300D02*
D03*
X190300Y334300D02*
D03*
X238800Y305800D02*
D03*
X229800Y315800D02*
D03*
X238800Y285800D02*
D03*
X229800Y295800D02*
D03*
Y275800D02*
D03*
X238800Y265800D02*
D03*
X777000Y266000D02*
D03*
X786000Y256000D02*
D03*
X777000Y286000D02*
D03*
X786000Y276000D02*
D03*
X777000Y306000D02*
D03*
X786000Y296000D02*
D03*
Y316000D02*
D03*
X849000Y302000D02*
D03*
X841500Y257500D02*
D03*
X825500Y257500D02*
D03*
X863000Y133000D02*
D03*
X852000Y149000D02*
D03*
X933000Y117000D02*
D03*
X917000Y281000D02*
D03*
X657000Y215000D02*
D03*
X691000Y199000D02*
D03*
X695000Y219000D02*
D03*
X745500Y224500D02*
D03*
X703000Y451000D02*
D03*
X871000Y362000D02*
D03*
X915000Y369000D02*
D03*
X825500Y391500D02*
D03*
X774000Y325000D02*
D03*
X809500Y257500D02*
D03*
X959000Y547000D02*
D03*
X972000Y520700D02*
D03*
X86000Y308000D02*
D03*
X310000Y162000D02*
D03*
X294000D02*
D03*
X283000Y149000D02*
D03*
X186000Y206000D02*
D03*
X339800Y358800D02*
D03*
X266000Y369000D02*
D03*
X257000Y205000D02*
D03*
X338000Y467000D02*
D03*
X290000D02*
D03*
X160000Y434000D02*
D03*
X86000Y412000D02*
D03*
X238800Y325800D02*
D03*
X226800Y332800D02*
D03*
X656000Y28000D02*
D03*
X638000Y38000D02*
D03*
X620000Y47000D02*
D03*
X132000Y346000D02*
D03*
Y369000D02*
D03*
X933000Y470000D02*
D03*
X663000Y353000D02*
D03*
X106000Y127000D02*
D03*
X784700Y109000D02*
D03*
X809000Y138000D02*
D03*
X741000Y138000D02*
D03*
D23*
X12000Y23000D02*
Y554000D01*
X977000Y575000D02*
X990000Y562000D01*
Y23000D02*
Y562000D01*
X12000Y23000D02*
X24000Y11000D01*
X978000D01*
X990000Y23000D01*
X18000Y570000D02*
X23000Y575000D01*
X977000D01*
X12000Y554000D02*
Y564000D01*
Y554000D02*
Y564000D01*
X18000Y570000D01*
M02*
