G04 Layer_Color=32896*
%FSLAX44Y44*%
%MOMM*%
G71*
G01*
G75*
%ADD25C,0.2000*%
%ADD38C,0.2032*%
%ADD39C,0.2286*%
D25*
X322000Y352000D02*
Y344003D01*
X325999D01*
X327332Y345336D01*
Y348001D01*
X325999Y349334D01*
X322000D01*
X324666D02*
X327332Y352000D01*
X329997D02*
Y346668D01*
X332663Y344003D01*
X335329Y346668D01*
Y352000D01*
Y348001D01*
X329997D01*
X343326Y344003D02*
X337995D01*
Y348001D01*
X340661Y346668D01*
X341994D01*
X343326Y348001D01*
Y350667D01*
X341994Y352000D01*
X339328D01*
X337995Y350667D01*
X320000Y248000D02*
Y240003D01*
X323999D01*
X325332Y241336D01*
Y244001D01*
X323999Y245334D01*
X320000D01*
X322666D02*
X325332Y248000D01*
X327997D02*
Y242668D01*
X330663Y240003D01*
X333329Y242668D01*
Y248000D01*
Y244001D01*
X327997D01*
X341326Y240003D02*
X338661Y241336D01*
X335995Y244001D01*
Y246667D01*
X337328Y248000D01*
X339994D01*
X341326Y246667D01*
Y245334D01*
X339994Y244001D01*
X335995D01*
X663000Y247000D02*
Y239003D01*
X666999D01*
X668332Y240336D01*
Y243001D01*
X666999Y244334D01*
X663000D01*
X665666D02*
X668332Y247000D01*
X670997D02*
Y241668D01*
X673663Y239003D01*
X676329Y241668D01*
Y247000D01*
Y243001D01*
X670997D01*
X678995Y239003D02*
X684326D01*
Y240336D01*
X678995Y245667D01*
Y247000D01*
X664000Y353000D02*
Y345003D01*
X667999D01*
X669332Y346335D01*
Y349001D01*
X667999Y350334D01*
X664000D01*
X666666D02*
X669332Y353000D01*
X671997D02*
Y347668D01*
X674663Y345003D01*
X677329Y347668D01*
Y353000D01*
Y349001D01*
X671997D01*
X679995Y346335D02*
X681328Y345003D01*
X683994D01*
X685326Y346335D01*
Y347668D01*
X683994Y349001D01*
X685326Y350334D01*
Y351667D01*
X683994Y353000D01*
X681328D01*
X679995Y351667D01*
Y350334D01*
X681328Y349001D01*
X679995Y347668D01*
Y346335D01*
X681328Y349001D02*
X683994D01*
D38*
X849250Y76200D02*
X861950D01*
X868300Y82550D01*
X861950Y101600D02*
X868300Y95250D01*
X817500Y82550D02*
X823850Y76200D01*
X836550D01*
X842900Y82550D01*
X836550Y101600D02*
X842900Y95250D01*
X823850Y101600D02*
X836550D01*
X817500Y95250D02*
X823850Y101600D01*
X842900Y82550D02*
X849250Y76200D01*
X842900Y95250D02*
X849250Y101600D01*
X861950D01*
X773050Y76200D02*
X785750D01*
X792100Y82550D01*
X785750Y101600D02*
X792100Y95250D01*
Y82550D02*
X798450Y76200D01*
X811150D01*
X817500Y82550D01*
X811150Y101600D02*
X817500Y95250D01*
X798450Y101600D02*
X811150D01*
X792100Y95250D02*
X798450Y101600D01*
X741300Y82550D02*
X747650Y76200D01*
X760350D01*
X766700Y82550D01*
X760350Y101600D02*
X766700Y95250D01*
X747650Y101600D02*
X760350D01*
X741300Y95250D02*
X747650Y101600D01*
X766700Y82550D02*
X773050Y76200D01*
X766700Y95250D02*
X773050Y101600D01*
X785750D01*
X715900Y82550D02*
X722250Y76200D01*
X734950D01*
X741300Y82550D01*
X734950Y101600D02*
X741300Y95250D01*
X722250Y101600D02*
X734950D01*
X715900Y95250D02*
X722250Y101600D01*
X874650Y76200D02*
X887350D01*
X893700Y82550D01*
X887350Y101600D02*
X893700Y95250D01*
X868300Y82550D02*
X874650Y76200D01*
X868300Y95250D02*
X874650Y101600D01*
X887350D01*
X900050Y76200D02*
X912750D01*
X919100Y82550D01*
X912750Y101600D02*
X919100Y95250D01*
X893700Y82550D02*
X900050Y76200D01*
X893700Y95250D02*
X900050Y101600D01*
X912750D01*
X925450Y76200D02*
X938150D01*
X944500Y82550D01*
Y95250D01*
X938150Y101600D02*
X944500Y95250D01*
X919100Y82550D02*
X925450Y76200D01*
X919100Y95250D02*
X925450Y101600D01*
X938150D01*
X849250Y482600D02*
X861950D01*
X868300Y488950D01*
X861950Y508000D02*
X868300Y501650D01*
X817500Y488950D02*
X823850Y482600D01*
X836550D01*
X842900Y488950D01*
X836550Y508000D02*
X842900Y501650D01*
X823850Y508000D02*
X836550D01*
X817500Y501650D02*
X823850Y508000D01*
X842900Y488950D02*
X849250Y482600D01*
X842900Y501650D02*
X849250Y508000D01*
X861950D01*
X773050Y482600D02*
X785750D01*
X792100Y488950D01*
X785750Y508000D02*
X792100Y501650D01*
Y488950D02*
X798450Y482600D01*
X811150D01*
X817500Y488950D01*
X811150Y508000D02*
X817500Y501650D01*
X798450Y508000D02*
X811150D01*
X792100Y501650D02*
X798450Y508000D01*
X741300Y488950D02*
X747650Y482600D01*
X760350D01*
X766700Y488950D01*
X760350Y508000D02*
X766700Y501650D01*
X747650Y508000D02*
X760350D01*
X741300Y501650D02*
X747650Y508000D01*
X766700Y488950D02*
X773050Y482600D01*
X766700Y501650D02*
X773050Y508000D01*
X785750D01*
X715900Y488950D02*
X722250Y482600D01*
X734950D01*
X741300Y488950D01*
X734950Y508000D02*
X741300Y501650D01*
X722250Y508000D02*
X734950D01*
X715900Y501650D02*
X722250Y508000D01*
X874650Y482600D02*
X887350D01*
X893700Y488950D01*
X887350Y508000D02*
X893700Y501650D01*
X868300Y488950D02*
X874650Y482600D01*
X868300Y501650D02*
X874650Y508000D01*
X887350D01*
X900050Y482600D02*
X912750D01*
X919100Y488950D01*
X912750Y508000D02*
X919100Y501650D01*
X893700Y488950D02*
X900050Y482600D01*
X893700Y501650D02*
X900050Y508000D01*
X912750D01*
X925450Y482600D02*
X938150D01*
X944500Y488950D01*
Y501650D01*
X938150Y508000D02*
X944500Y501650D01*
X919100Y488950D02*
X925450Y482600D01*
X919100Y501650D02*
X925450Y508000D01*
X938150D01*
X849250Y50800D02*
X861950D01*
X868300Y57150D01*
X861950Y76200D02*
X868300Y69850D01*
X817500Y57150D02*
X823850Y50800D01*
X836550D01*
X842900Y57150D01*
X836550Y76200D02*
X842900Y69850D01*
X823850Y76200D02*
X836550D01*
X817500Y69850D02*
X823850Y76200D01*
X842900Y57150D02*
X849250Y50800D01*
X842900Y69850D02*
X849250Y76200D01*
X861950D01*
X773050Y50800D02*
X785750D01*
X792100Y57150D01*
X785750Y76200D02*
X792100Y69850D01*
Y57150D02*
X798450Y50800D01*
X811150D01*
X817500Y57150D01*
X811150Y76200D02*
X817500Y69850D01*
X798450Y76200D02*
X811150D01*
X792100Y69850D02*
X798450Y76200D01*
X741300Y57150D02*
X747650Y50800D01*
X760350D01*
X766700Y57150D01*
X760350Y76200D02*
X766700Y69850D01*
X747650Y76200D02*
X760350D01*
X741300Y69850D02*
X747650Y76200D01*
X766700Y57150D02*
X773050Y50800D01*
X766700Y69850D02*
X773050Y76200D01*
X785750D01*
X715900Y57150D02*
X722250Y50800D01*
X734950D01*
X741300Y57150D01*
X734950Y76200D02*
X741300Y69850D01*
X722250Y76200D02*
X734950D01*
X715900Y69850D02*
X722250Y76200D01*
X874650Y50800D02*
X887350D01*
X893700Y57150D01*
X887350Y76200D02*
X893700Y69850D01*
X868300Y57150D02*
X874650Y50800D01*
X868300Y69850D02*
X874650Y76200D01*
X887350D01*
X900050Y50800D02*
X912750D01*
X919100Y57150D01*
X912750Y76200D02*
X919100Y69850D01*
X893700Y57150D02*
X900050Y50800D01*
X893700Y69850D02*
X900050Y76200D01*
X912750D01*
X925450Y50800D02*
X938150D01*
X944500Y57150D01*
Y69850D01*
X938150Y76200D02*
X944500Y69850D01*
X919100Y57150D02*
X925450Y50800D01*
X919100Y69850D02*
X925450Y76200D01*
X938150D01*
X849250Y508000D02*
X861950D01*
X868300Y514350D01*
X861950Y533400D02*
X868300Y527050D01*
X817500Y514350D02*
X823850Y508000D01*
X836550D01*
X842900Y514350D01*
X836550Y533400D02*
X842900Y527050D01*
X823850Y533400D02*
X836550D01*
X817500Y527050D02*
X823850Y533400D01*
X842900Y514350D02*
X849250Y508000D01*
X842900Y527050D02*
X849250Y533400D01*
X861950D01*
X773050Y508000D02*
X785750D01*
X792100Y514350D01*
X785750Y533400D02*
X792100Y527050D01*
Y514350D02*
X798450Y508000D01*
X811150D01*
X817500Y514350D01*
X811150Y533400D02*
X817500Y527050D01*
X798450Y533400D02*
X811150D01*
X792100Y527050D02*
X798450Y533400D01*
X741300Y514350D02*
X747650Y508000D01*
X760350D01*
X766700Y514350D01*
X760350Y533400D02*
X766700Y527050D01*
X747650Y533400D02*
X760350D01*
X741300Y527050D02*
X747650Y533400D01*
X766700Y514350D02*
X773050Y508000D01*
X766700Y527050D02*
X773050Y533400D01*
X785750D01*
X715900Y514350D02*
X722250Y508000D01*
X734950D01*
X741300Y514350D01*
X734950Y533400D02*
X741300Y527050D01*
X722250Y533400D02*
X734950D01*
X715900Y527050D02*
X722250Y533400D01*
X874650Y508000D02*
X887350D01*
X893700Y514350D01*
X887350Y533400D02*
X893700Y527050D01*
X868300Y514350D02*
X874650Y508000D01*
X868300Y527050D02*
X874650Y533400D01*
X887350D01*
X900050Y508000D02*
X912750D01*
X919100Y514350D01*
X912750Y533400D02*
X919100Y527050D01*
X893700Y514350D02*
X900050Y508000D01*
X893700Y527050D02*
X900050Y533400D01*
X912750D01*
X925450Y508000D02*
X938150D01*
X944500Y514350D01*
Y527050D01*
X938150Y533400D02*
X944500Y527050D01*
X919100Y514350D02*
X925450Y508000D01*
X919100Y527050D02*
X925450Y533400D01*
X938150D01*
X214250Y76200D02*
X226950D01*
X233300Y82550D01*
X226950Y101600D02*
X233300Y95250D01*
X182500Y82550D02*
X188850Y76200D01*
X201550D01*
X207900Y82550D01*
X201550Y101600D02*
X207900Y95250D01*
X188850Y101600D02*
X201550D01*
X182500Y95250D02*
X188850Y101600D01*
X207900Y82550D02*
X214250Y76200D01*
X207900Y95250D02*
X214250Y101600D01*
X226950D01*
X138050Y76200D02*
X150750D01*
X157100Y82550D01*
X150750Y101600D02*
X157100Y95250D01*
Y82550D02*
X163450Y76200D01*
X176150D01*
X182500Y82550D01*
X176150Y101600D02*
X182500Y95250D01*
X163450Y101600D02*
X176150D01*
X157100Y95250D02*
X163450Y101600D01*
X106300Y82550D02*
X112650Y76200D01*
X125350D01*
X131700Y82550D01*
X125350Y101600D02*
X131700Y95250D01*
X112650Y101600D02*
X125350D01*
X106300Y95250D02*
X112650Y101600D01*
X131700Y82550D02*
X138050Y76200D01*
X131700Y95250D02*
X138050Y101600D01*
X150750D01*
X80900Y82550D02*
X87250Y76200D01*
X99950D01*
X106300Y82550D01*
X99950Y101600D02*
X106300Y95250D01*
X87250Y101600D02*
X99950D01*
X80900Y95250D02*
X87250Y101600D01*
X239650Y76200D02*
X252350D01*
X258700Y82550D01*
X252350Y101600D02*
X258700Y95250D01*
X233300Y82550D02*
X239650Y76200D01*
X233300Y95250D02*
X239650Y101600D01*
X252350D01*
X265050Y76200D02*
X277750D01*
X284100Y82550D01*
X277750Y101600D02*
X284100Y95250D01*
X258700Y82550D02*
X265050Y76200D01*
X258700Y95250D02*
X265050Y101600D01*
X277750D01*
X290450Y76200D02*
X303150D01*
X309500Y82550D01*
Y95250D01*
X303150Y101600D02*
X309500Y95250D01*
X284100Y82550D02*
X290450Y76200D01*
X284100Y95250D02*
X290450Y101600D01*
X303150D01*
X214250Y482600D02*
X226950D01*
X233300Y488950D01*
X226950Y508000D02*
X233300Y501650D01*
X182500Y488950D02*
X188850Y482600D01*
X201550D01*
X207900Y488950D01*
X201550Y508000D02*
X207900Y501650D01*
X188850Y508000D02*
X201550D01*
X182500Y501650D02*
X188850Y508000D01*
X207900Y488950D02*
X214250Y482600D01*
X207900Y501650D02*
X214250Y508000D01*
X226950D01*
X138050Y482600D02*
X150750D01*
X157100Y488950D01*
X150750Y508000D02*
X157100Y501650D01*
Y488950D02*
X163450Y482600D01*
X176150D01*
X182500Y488950D01*
X176150Y508000D02*
X182500Y501650D01*
X163450Y508000D02*
X176150D01*
X157100Y501650D02*
X163450Y508000D01*
X106300Y488950D02*
X112650Y482600D01*
X125350D01*
X131700Y488950D01*
X125350Y508000D02*
X131700Y501650D01*
X112650Y508000D02*
X125350D01*
X106300Y501650D02*
X112650Y508000D01*
X131700Y488950D02*
X138050Y482600D01*
X131700Y501650D02*
X138050Y508000D01*
X150750D01*
X80900Y488950D02*
X87250Y482600D01*
X99950D01*
X106300Y488950D01*
X99950Y508000D02*
X106300Y501650D01*
X87250Y508000D02*
X99950D01*
X80900Y501650D02*
X87250Y508000D01*
X239650Y482600D02*
X252350D01*
X258700Y488950D01*
X252350Y508000D02*
X258700Y501650D01*
X233300Y488950D02*
X239650Y482600D01*
X233300Y501650D02*
X239650Y508000D01*
X252350D01*
X265050Y482600D02*
X277750D01*
X284100Y488950D01*
X277750Y508000D02*
X284100Y501650D01*
X258700Y488950D02*
X265050Y482600D01*
X258700Y501650D02*
X265050Y508000D01*
X277750D01*
X290450Y482600D02*
X303150D01*
X309500Y488950D01*
Y501650D01*
X303150Y508000D02*
X309500Y501650D01*
X284100Y488950D02*
X290450Y482600D01*
X284100Y501650D02*
X290450Y508000D01*
X303150D01*
X214250Y50800D02*
X226950D01*
X233300Y57150D01*
X226950Y76200D02*
X233300Y69850D01*
X182500Y57150D02*
X188850Y50800D01*
X201550D01*
X207900Y57150D01*
X201550Y76200D02*
X207900Y69850D01*
X188850Y76200D02*
X201550D01*
X182500Y69850D02*
X188850Y76200D01*
X207900Y57150D02*
X214250Y50800D01*
X207900Y69850D02*
X214250Y76200D01*
X226950D01*
X138050Y50800D02*
X150750D01*
X157100Y57150D01*
X150750Y76200D02*
X157100Y69850D01*
Y57150D02*
X163450Y50800D01*
X176150D01*
X182500Y57150D01*
X176150Y76200D02*
X182500Y69850D01*
X163450Y76200D02*
X176150D01*
X157100Y69850D02*
X163450Y76200D01*
X106300Y57150D02*
X112650Y50800D01*
X125350D01*
X131700Y57150D01*
X125350Y76200D02*
X131700Y69850D01*
X112650Y76200D02*
X125350D01*
X106300Y69850D02*
X112650Y76200D01*
X131700Y57150D02*
X138050Y50800D01*
X131700Y69850D02*
X138050Y76200D01*
X150750D01*
X80900Y57150D02*
X87250Y50800D01*
X99950D01*
X106300Y57150D01*
X99950Y76200D02*
X106300Y69850D01*
X87250Y76200D02*
X99950D01*
X80900Y69850D02*
X87250Y76200D01*
X239650Y50800D02*
X252350D01*
X258700Y57150D01*
X252350Y76200D02*
X258700Y69850D01*
X233300Y57150D02*
X239650Y50800D01*
X233300Y69850D02*
X239650Y76200D01*
X252350D01*
X265050Y50800D02*
X277750D01*
X284100Y57150D01*
X277750Y76200D02*
X284100Y69850D01*
X258700Y57150D02*
X265050Y50800D01*
X258700Y69850D02*
X265050Y76200D01*
X277750D01*
X290450Y50800D02*
X303150D01*
X309500Y57150D01*
Y69850D01*
X303150Y76200D02*
X309500Y69850D01*
X284100Y57150D02*
X290450Y50800D01*
X284100Y69850D02*
X290450Y76200D01*
X303150D01*
X214250Y508000D02*
X226950D01*
X233300Y514350D01*
X226950Y533400D02*
X233300Y527050D01*
X182500Y514350D02*
X188850Y508000D01*
X201550D01*
X207900Y514350D01*
X201550Y533400D02*
X207900Y527050D01*
X188850Y533400D02*
X201550D01*
X182500Y527050D02*
X188850Y533400D01*
X207900Y514350D02*
X214250Y508000D01*
X207900Y527050D02*
X214250Y533400D01*
X226950D01*
X138050Y508000D02*
X150750D01*
X157100Y514350D01*
X150750Y533400D02*
X157100Y527050D01*
Y514350D02*
X163450Y508000D01*
X176150D01*
X182500Y514350D01*
X176150Y533400D02*
X182500Y527050D01*
X163450Y533400D02*
X176150D01*
X157100Y527050D02*
X163450Y533400D01*
X106300Y514350D02*
X112650Y508000D01*
X125350D01*
X131700Y514350D01*
X125350Y533400D02*
X131700Y527050D01*
X112650Y533400D02*
X125350D01*
X106300Y527050D02*
X112650Y533400D01*
X131700Y514350D02*
X138050Y508000D01*
X131700Y527050D02*
X138050Y533400D01*
X150750D01*
X80900Y514350D02*
X87250Y508000D01*
X99950D01*
X106300Y514350D01*
X99950Y533400D02*
X106300Y527050D01*
X87250Y533400D02*
X99950D01*
X80900Y527050D02*
X87250Y533400D01*
X239650Y508000D02*
X252350D01*
X258700Y514350D01*
X252350Y533400D02*
X258700Y527050D01*
X233300Y514350D02*
X239650Y508000D01*
X233300Y527050D02*
X239650Y533400D01*
X252350D01*
X265050Y508000D02*
X277750D01*
X284100Y514350D01*
X277750Y533400D02*
X284100Y527050D01*
X258700Y514350D02*
X265050Y508000D01*
X258700Y527050D02*
X265050Y533400D01*
X277750D01*
X290450Y508000D02*
X303150D01*
X309500Y514350D01*
Y527050D01*
X303150Y533400D02*
X309500Y527050D01*
X284100Y514350D02*
X290450Y508000D01*
X284100Y527050D02*
X290450Y533400D01*
X303150D01*
D39*
X715900Y95250D02*
Y101600D01*
X690500D02*
X715900D01*
X690500Y76200D02*
Y101600D01*
Y76200D02*
X715900D01*
Y82550D01*
Y501650D02*
Y508000D01*
X690500D02*
X715900D01*
X690500Y482600D02*
Y508000D01*
Y482600D02*
X715900D01*
Y488950D01*
Y69850D02*
Y76200D01*
X690500D02*
X715900D01*
X690500Y50800D02*
Y76200D01*
Y50800D02*
X715900D01*
Y57150D01*
Y527050D02*
Y533400D01*
X690500D02*
X715900D01*
X690500Y508000D02*
Y533400D01*
Y508000D02*
X715900D01*
Y514350D01*
X80900Y95250D02*
Y101600D01*
X55500D02*
X80900D01*
X55500Y76200D02*
Y101600D01*
Y76200D02*
X80900D01*
Y82550D01*
Y501650D02*
Y508000D01*
X55500D02*
X80900D01*
Y482600D02*
Y488950D01*
Y69850D02*
Y76200D01*
X55500D02*
X80900D01*
X55500Y50800D02*
Y76200D01*
Y50800D02*
X80900D01*
Y57150D01*
Y527050D02*
Y533400D01*
X55500Y508000D02*
X80900D01*
Y514350D01*
X57800Y533400D02*
X80900D01*
X55500Y531100D02*
X57800Y533400D01*
X55500Y508000D02*
Y531100D01*
X55750Y482600D02*
X80900D01*
X55500Y482850D02*
X55750Y482600D01*
X55500Y482850D02*
Y508000D01*
M02*
