M48
;Layer_Color=9474304
;FILE_FORMAT=4:3
METRIC
;TYPE=PLATED
T1F00S00C0.400
T2F00S00C1.000
T3F00S00C1.016
%
T01
X0010600Y0012700
X0062000Y0004700
X0063800Y0003800
X0065600Y0002800
X0078470Y0010900
X0079300Y0012000
X0093300Y0011700
X0094800Y0013300
X0097600
X0091600
X0089900Y0015000
X0085200Y0014900
X0086300Y0013300
X0082800Y0015700
X0080900Y0013800
X0079550Y0017950
X0078700Y0019200
X0077900Y0020400
X0074550Y0022450
X0078600Y0025600
X0077700Y0026600
X0078600Y0027600
X0077700Y0028600
X0078600Y0029600
X0077700Y0030600
X0078600Y0031600
X0077400Y0032500
X0084900Y0030200
X0084900Y0028600
X0084150Y0025750
X0082550Y0025750
X0080950Y0025750
X0091700Y0028100
X0091500Y0036900
X0087100Y0036200
X0082550Y0039150
X0085900Y0046400
X0093300Y0047000
X0097200Y0052070
X0074100Y0013800
X0069100Y0019900
X0067500Y0020300
X0065700Y0021500
X0065600Y0018900
X0063800Y0017900
X0062000Y0016500
X0069500Y0021900
X0066300Y0035300
X0070300Y0045100
X0033600Y0045000
X0033800Y0046700
X0032600Y0043700
Y0040000
X0033980Y0035880
X0036000Y0052000
X0037600Y0052000
X0029000Y0046700
X0027300Y0045000
X0026300Y0043700
X0025200Y0042600
X0022200Y0040400
X0020200Y0041100
X0018900Y0040900
X0017530Y0041000
X0016000Y0041100
Y0043400
X0018600Y0039200
X0019030Y0033430
X0017430Y0033430
X0016680Y0030580
X0016680Y0028980
X0022980Y0029580
X0023880Y0030580
X0022980Y0031580
X0023880Y0032580
X0022680Y0033280
X0023880Y0028580
X0022980Y0027580
X0023880Y0026580
X0025700Y0020500
X0018600Y0020600
X0011600Y0020800
X0010000Y0021200
X0008600Y0030800
X0013200Y0034600
Y0036900
X0008600Y0041200
X0030200Y0041600
X0031400Y0040800
X0031500Y0042600
X0026600Y0036900
X0029400Y0016200
X0031000
X0028300Y0014900
X0036000Y0054200
X0037600Y0055800
X0095900Y0054700
T02
X0041380Y0006160
Y0008700
X0043920
X0046460
X0049000
X0051540
X0054080
X0056620
X0059160
Y0006160
X0056620
X0054080
X0051540
X0049000
X0046460
X0043920
X0094030Y0020270
X0096570
Y0022810
Y0025350
Y0027890
Y0030430
Y0032970
Y0035510
Y0038050
X0094030
Y0035510
Y0032970
Y0030430
Y0027890
Y0025350
Y0022810
X0059230Y0049430
X0056690
X0054150
X0051610
X0049070
X0046530
X0043990
X0041450
Y0051970
X0043990
X0046530
X0049070
X0051610
X0054150
X0056690
X0059230
X0005470Y0038750
Y0036210
Y0033670
Y0031130
Y0028590
Y0026050
Y0023510
Y0020970
X0002930
Y0023510
Y0026050
Y0028590
Y0031130
Y0033670
Y0036210
Y0038750
T03
X0006820Y0006350
Y0008890
X0009360
X0011900
X0014440
X0016980
X0019520
X0022060
X0024600
X0027140
X0029680
Y0006350
X0027140
X0024600
X0022060
X0019520
X0016980
X0014440
X0011900
X0009360
X0070320
Y0008890
X0072860
X0075400
X0077940
X0080480
X0083020
X0085560
X0088100
X0090640
X0093180
Y0006350
X0090640
X0088100
X0085560
X0083020
X0080480
X0077940
X0075400
X0072860
Y0049530
X0075400
X0077940
X0080480
X0083020
X0085560
X0088100
X0090640
X0093180
Y0052070
X0090640
X0088100
X0085560
X0083020
X0080480
X0077940
X0075400
X0072860
X0070320
Y0049530
X0029680
X0027140
X0024600
X0022060
X0019520
X0016980
X0014440
X0011900
X0009360
X0006820
Y0052070
X0009360
X0011900
X0014440
X0016980
X0019520
X0022060
X0024600
X0027140
X0029680
M30
